<svg viewBox="0 0 267.3 105.3"><style>.logo-st0{fill:#231f20}.logo-st1{fill:#cc0b2f}</style><path class="logo-st0" d="M85.9 63.9c6.2 6.6 11.7 9.6 19 9.6 12.2 0 20.5-8.1 20.5-19.9 0-10.3-7.3-17.4-17.7-17.4-6.9 0-13.5 2.7-20.5 7.8L97 3.4h38.8l-2.6 7.6h-30l-4.6 19.3c3.2-1.1 6.3-1.6 9.5-1.6 15.3 0 25.7 9.8 25.7 24.8 0 16.3-11.3 27.8-29.3 27.8a30.5 30.5 0 0 1-25-11.8l6.4-5.6zm53.8-60.1h9v32.3h36.9V3.8h9V81h-9V44.4h-36.9V81h-9V3.8zm61.1 0h16.9c29.8 0 46.2 15.5 46.2 38.6a36 36 0 0 1-19.1 32.8 51.7 51.7 0 0 1-27.1 5.8h-16.9V3.8zm18.6 68.7c22.7 0 35.2-11.7 35.2-30.1S242 12.2 219.4 12.2h-9.5v60.3h9.5z"/><path class="logo-st1" d="M3.4 42.5c0 15.5 9.1 28.8 22.2 35a7.3 7.3 0 0 1 6.9-11.1c3.9.5 6.8 4.1 6.3 8-.3 2.8-2.3 5-4.7 5.9a38.7 38.7 0 0 0 46.6-37.8l-.2-3.7v-.4l-.1-.7a13.3 13.3 0 0 1-14.8 11.2c-7.4-1-12.6-7.6-11.7-14.9a13.4 13.4 0 0 1 23.6-6.8c-5-11.4-15.2-20-27.7-22.5h-.1l-3.6-.5h-.3L42 4c-4 0-7.9.6-11.5 1.7l-.5.2L27 7A38.3 38.3 0 0 0 3.4 42.5m33.2 12.1a10 10 0 0 1 11.1-8.7A10 10 0 0 1 56.3 57a10 10 0 0 1-11.1 8.7 10 10 0 0 1-8.6-11.1z"/><path class="logo-st0" d="M210.6 100.5a4 4 0 0 1-2.4-.8 4 4 0 0 1-1.5-3.3c0-2.4 1.7-4.1 3.9-4.1.8 0 1.6.2 2.3.7l-.1 1c-.7-.6-1.4-.9-2.2-.9-1.7 0-3 1.4-3 3.3s1.2 3.3 3 3.3c.8 0 1.6-.3 2.4-1l-.1 1.1c-.7.4-1.5.7-2.3.7zm4.8-7.1c.7-.8 1.7-1.2 2.7-1.2 1 0 2 .4 2.7 1.2.7.8 1.1 1.8 1.1 3 0 1-.3 1.8-.8 2.5-.7 1-1.9 1.6-3 1.6-1 0-2-.4-2.7-1.2-.7-.8-1.1-1.8-1.1-3s.3-2.1 1.1-2.9zm2.7 6.2c1.6 0 2.9-1.4 2.9-3.3s-1.3-3.3-2.9-3.3c-1.6 0-2.9 1.4-2.9 3.3s1.3 3.3 2.9 3.3zm6.8-7.4l2.8 6.3 2.7-6.3h.1l1.5 8h-.9l-1-5.4-2.4 5.6h-.1l-2.4-5.6-1 5.3h-.9l1.6-7.9zm9.2.3h1.6c1 0 1.8.1 2.4.6.6.4.9 1.1.9 1.7 0 1.5-1.1 2.5-3.3 2.5h-.8v3h-.9v-7.8zm1.7 3.9c1.6 0 2.3-.6 2.3-1.6 0-1.1-.8-1.6-2.5-1.6h-.6v3.2h.8zm7.4-4.1h.1l3.6 8h-1l-.9-2h-3.7l-.9 2h-1l3.8-8zm1.6 5.2l-1.5-3.4-1.5 3.4h3zm3.6-5.3h.1l5.2 6.1v-5.8h.9v8h-.1l-5.2-6.1v5.8h-.9v-8zm11.1 4.7l-3-4.4h1.1L260 96l2.6-3.6h1l-3.2 4.3v3.4h-.9v-3.2zM83.8 92.3h.1l3.6 8h-1l-.9-2h-3.7l-.9 2h-1l3.8-8zm1.5 5.2l-1.5-3.4-1.5 3.4h3z"/><path class="logo-st1" d="M93.1 90v2.2h2.1v1h-2.1V98c0 .4 0 1.3.8 1.3.4 0 .6-.1 1.2-.4l.2-.1v1c-.5.3-1.1.6-1.8.6-1.8 0-1.8-1.4-1.8-2.1v-5.2h-1v-.7c1.4-.5 1.5-1.7 1.6-2.5h.8zm5.2 2.1l.2 1.5c.5-1 1.3-1.6 2.3-1.6l.8.2v1.7h-.9v-.2c0-.1 0-.5-.5-.5-.7 0-1.8 1-1.8 3.5v2.2c0 .5.2.6.6.6h.5v.8h-3.3v-.8h.3c.6 0 .7-.2.7-.8v-4.8c0-.6-.1-.7-.7-.7H96v-.7l2.3-.4zm6.5-.1v6.6c0 .6 0 .8.6.8h.4v.8h-3.3v-.8h.4c.5 0 .6 0 .6-.8v-4.7c0-.8-.1-.9-.7-.9h-.4v-.8l2.4-.2zm.1-2.7c0 .5-.4.9-.9.9a.9.9 0 0 1-.9-.9c0-.5.4-.9.9-.9s.9.4.9.9zm2 3.5c.4-.3 1.4-.9 2.8-.9.6 0 1.8.1 2.5 1.1.2.4.3 1.1.3 2v3.3c0 .9.1 1.1.4 1.1l.7-.2v.8l-.1.1c-.3.2-.8.4-1.3.4-.9 0-1-.9-1.1-1.3-.4.5-1 1.3-2.5 1.3-.8 0-2.5-.3-2.5-2.3 0-2.1 1.8-2.5 5-3.3 0-.8 0-2-1.6-2-1.2 0-1.6.5-1.6 1.4v.4h-1.1v-1.9zm4.3 2.9h-.1c-2.3.6-3.5.9-3.5 2.2 0 .9.7 1.4 1.4 1.4.5 0 1.2-.2 1.6-.7.3-.3.5-.7.5-1.8v-1.1zm9.9-7.5v10.2c0 .6 0 .8.6.8h.5v.7l-2.3.2-.1-1.2a2.7 2.7 0 0 1-2.5 1.4c-2.6 0-3.3-2.4-3.3-4.1 0-2.2 1.2-4.4 3.6-4.4.9 0 1.7.4 2.2 1.1v-3.1c0-.5 0-.7-.7-.7h-.5v-.7l2.5-.2zm-5 10.4c.4.4 1 .7 1.5.7 1.2 0 2.3-1 2.3-3.2 0-2-.8-3.1-2.3-3.1-2 0-2.2 2.4-2.2 3.2 0 1.3.2 1.9.7 2.4zm12-5.8c.4-.3 1.4-.9 2.8-.9.6 0 1.8.1 2.5 1.1.2.4.3 1.1.3 2v3.3c0 .9.1 1.1.4 1.1l.7-.2v.8l-.1.1c-.3.2-.8.4-1.3.4-.9 0-1-.9-1.1-1.3-.4.5-1 1.3-2.5 1.3-.8 0-2.5-.3-2.5-2.3 0-2.1 1.8-2.5 5-3.3 0-.8 0-2-1.6-2-1.2 0-1.6.5-1.6 1.4v.4H128v-1.9zm4.3 2.9h-.1c-2.3.6-3.5.9-3.5 2.2 0 .9.7 1.4 1.4 1.4.5 0 1.2-.2 1.6-.7.3-.3.5-.7.5-1.8v-1.1zm9.9-7.5v10.2c0 .6 0 .8.6.8h.5v.7l-2.3.2-.1-1.2a2.7 2.7 0 0 1-2.5 1.4c-2.6 0-3.3-2.4-3.3-4.1 0-2.2 1.2-4.4 3.6-4.4.9 0 1.7.4 2.2 1.1v-3.1c0-.5 0-.7-.7-.7h-.5v-.7l2.5-.2zm-5 10.4c.4.4 1 .7 1.5.7 1.2 0 2.3-1 2.3-3.2 0-2-.8-3.1-2.3-3.1-2 0-2.2 2.4-2.2 3.2 0 1.3.3 1.9.7 2.4zm5.7-6.5h3.5v.8c-.7 0-.9 0-.9.3l.1.4 1.8 4.7 1.8-4.7.1-.4c0-.3-.2-.3-.9-.3v-.8h3v.8c-.7 0-.8 0-1.1 1l-.1.2-2.5 6.3h-1l-2.6-6.5c-.4-.9-.6-.9-1.3-.9v-.9zm9.7 3.9c0 1.9.8 3.2 2.5 3.2 1.1 0 2-.5 2.8-1.3v1.2c-1 .9-2 1.2-3.1 1.2-2.6 0-3.7-2-3.7-4.1 0-2.6 1.5-4.4 3.7-4.4.6 0 1.9.2 2.7 1.4.6.9.6 2.1.6 2.8h-5.5zm4.2-.9c-.1-1.3-.6-2.3-1.9-2.3-.3 0-1.8 0-2.1 2.3h4zm3.9-3l.2 1.5c.5-1 1.3-1.6 2.3-1.6l.8.2v1.7h-.9v-.2c0-.1 0-.5-.5-.5-.7 0-1.8 1-1.8 3.5v2.2c0 .5.2.6.6.6h.5v.8h-3.3v-.8h.3c.6 0 .7-.2.7-.8v-4.8c0-.6-.1-.7-.7-.7h-.5v-.7l2.3-.4zm6.5-2.1v2.2h2.1v1h-2.1V98c0 .4 0 1.3.8 1.3.4 0 .6-.1 1.2-.4l.2-.1v1c-.5.3-1.1.6-1.8.6-1.8 0-1.8-1.4-1.8-2.1v-5.2h-1v-.7c1.4-.5 1.5-1.7 1.6-2.5h.8zm5.4 2v6.6c0 .6 0 .8.6.8h.4v.8h-3.3v-.8h.4c.5 0 .6 0 .6-.8v-4.7c0-.8-.1-.9-.7-.9h-.4v-.8l2.4-.2zm.1-2.7c0 .5-.4.9-.9.9a.9.9 0 0 1-.9-.9c0-.5.4-.9.9-.9s.9.4.9.9zm7 5.2h-1V94c0-.4 0-1.2-1.5-1.2-1.1 0-1.4.6-1.4 1.2 0 .8.6 1.1 1.9 1.6 1.3.5 2.5 1.1 2.5 2.5 0 .7-.4 2.4-3 2.4-.6 0-1.7-.1-2.7-.5v-2.3h1.1v.6c0 .6.1 1.3 1.6 1.3 1.7 0 1.7-1.2 1.7-1.3 0-.7-.8-1.2-1.4-1.5l-.8-.4c-1-.4-2.2-.9-2.2-2.3 0-1 .8-2.2 2.8-2.2.8 0 1.7.2 2.5.5v2.1zm3.5-2.5v6.6c0 .6 0 .8.6.8h.4v.8H181v-.8h.4c.5 0 .6 0 .6-.8v-4.7c0-.8-.1-.9-.7-.9h-.4v-.8l2.4-.2zm.1-2.7c0 .5-.4.9-.9.9a.9.9 0 0 1-.9-.9c0-.5.4-.9.9-.9s.9.4.9.9zm4 2.8l.1.5.1.6c.3-.4.9-1.3 2.5-1.3 2.6 0 2.6 2.2 2.6 3v3.8c0 .6 0 .6.6.6h.3v.8h-3.3v-.8h.3c.7 0 .7-.1.7-.9v-3.5c0-.7 0-2-1.6-2-.7 0-1.5.3-1.8 1.1-.2.5-.3 1.6-.3 1.6v2.9c0 .7.1.8.6.8h.3v.8h-3.3v-.8h.3c.6 0 .6-.2.6-.8v-4.7c0-.6 0-.8-.5-.8h-.7v-.8l2.5-.1zm14.2 1h-1.5c.2.3.6.8.6 1.8 0 1.2-.6 2.5-2.1 2.8l-1.7.2c-.6 0-1 .3-1 .7 0 .5 1.1.6 1.6.6 2.3.1 2.9.1 3.5.6.2.2.6.6.6 1.4 0 .4-.1 1.3-1.1 2-.8.6-1.8.7-3 .7-.9 0-3.7 0-3.7-2 0-.4.1-1.5 1.8-1.9-.5-.2-1-.4-1-1.1 0-1 1.1-1.3 1.4-1.4-1.1-.4-1.7-1.4-1.7-2.6 0-1.4.8-3 3.3-3 .8 0 1.1.1 1.5.2h2.6v1zm-4.1 9.9c2.2 0 2.8-.8 2.8-1.5 0-1-1.4-1.1-2.7-1.1-.7 0-2.6 0-2.6 1.3-.1 1.2 1.9 1.3 2.5 1.3zm.1-5.9c.9 0 1.8-.6 1.8-2.1 0-1.6-.9-2.2-1.8-2.2-1.8 0-1.9 1.8-1.9 2.1 0 1.8 1.1 2.2 1.9 2.2z"/></svg>
